<svg xmlns="http://www.w3.org/2000/svg" width="17" height="16" viewBox="0 0 17 16">
    <path fill="#4B4B4B" fill-rule="nonzero" d="M14.995 1.064h-.962V.409c0-.245-.2-.409-.4-.409-.241 0-.402.205-.402.45v.655l-9.542.123V.573c0-.246-.2-.41-.401-.41-.24 0-.401.205-.401.45v.656H1.804C.802 1.269 0 2.169 0 3.233l.16 10.844C.16 15.14 1.002 16 2.005 16l13.19-.246c1.003 0 1.805-.9 1.805-1.964l-.16-10.844c-.04-1.064-.842-1.923-1.845-1.882zM1.805 2.087h1.082V3.11c0 .245.2.41.4.41.241 0 .402-.205.402-.45V2.045l9.502-.123v1.023c0 .246.2.41.401.41.24 0 .4-.205.4-.45V1.881h.963c.562 0 1.043.45 1.043 1.064l.04 1.433-15.196.286-.04-1.432c0-.614.44-1.105 1.002-1.146zm13.39 12.808l-13.19.205c-.562 0-1.043-.45-1.043-1.064l-.12-8.553 15.196-.245.12 8.552c.04.614-.4 1.105-.962 1.105z"/>
</svg>
