<?xml version="1.0" encoding="utf-8"?>
<!-- Generator: Adobe Illustrator 24.2.0, SVG Export Plug-In . SVG Version: 6.00 Build 0)  -->
<svg version="1.1" id="Layer_1" xmlns="http://www.w3.org/2000/svg" xmlns:xlink="http://www.w3.org/1999/xlink" x="0px" y="0px"
	 viewBox="0 0 50 50" style="enable-background:new 0 0 50 50;" xml:space="preserve">
<style type="text/css">
	.st0{fill:#ffffff;}
</style>
<g>
	<g>
		<g>
			<path class="st0" d="M1.94,28.56c3.04,3.83,6.07,7.67,9.11,11.5c0.67,0.84,1.84,0.37,2.36-0.3c6.2-8.17,12.4-16.35,18.6-24.52
				c0.88-1.16,1.76-2.32,2.64-3.48c1.17-1.54-1.44-3.03-2.59-1.51c-6.2,8.17-12.4,16.35-18.6,24.52c-0.88,1.16-1.76,2.32-2.64,3.48
				c0.79-0.1,1.57-0.2,2.36-0.3c-3.04-3.83-6.07-7.67-9.11-11.5C2.86,24.93,0.75,27.06,1.94,28.56L1.94,28.56z"/>
		</g>
	</g>
	<g>
		<g>
			<path class="st0" d="M19.31,40.5c3.77,0,7.53,0,11.3,0c0.53,0,1.07,0,1.6,0c1.93,0,1.93-3,0-3c-3.77,0-7.53,0-11.3,0
				c-0.53,0-1.07,0-1.6,0C17.38,37.5,17.38,40.5,19.31,40.5L19.31,40.5z"/>
		</g>
	</g>
	<g>
		<g>
			<path class="st0" d="M30.31,28c3.1,0,6.2,0,9.3,0c0.44,0,0.88,0,1.32,0c0.81,0,1.5-0.69,1.5-1.5c0-0.81-0.69-1.5-1.5-1.5
				c-3.1,0-6.2,0-9.3,0c-0.44,0-0.88,0-1.32,0c-0.81,0-1.5,0.69-1.5,1.5C28.81,27.31,29.5,28,30.31,28L30.31,28z"/>
		</g>
	</g>
	<g>
		<g>
			<path class="st0" d="M37.9,15.5c2.66,0,5.32,0,7.97,0c0.38,0,0.75,0,1.13,0c0.78,0,1.54-0.69,1.5-1.5
				c-0.04-0.81-0.66-1.5-1.5-1.5c-2.66,0-5.32,0-7.97,0c-0.38,0-0.75,0-1.13,0c-0.78,0-1.54,0.69-1.5,1.5
				C36.43,14.81,37.06,15.5,37.9,15.5L37.9,15.5z"/>
		</g>
	</g>
</g>
</svg>
