<svg xmlns="http://www.w3.org/2000/svg" width="18" height="18" viewBox="0 0 18 18">
    <path fill="#FFF" fill-rule="evenodd" d="M9 0c1.242 0 2.411.234 3.507.703a9.031 9.031 0 0 1 2.865 1.925 9.031 9.031 0 0 1 1.925 2.865A8.821 8.821 0 0 1 18 9a8.821 8.821 0 0 1-.703 3.507 9.031 9.031 0 0 1-1.925 2.865 9.031 9.031 0 0 1-2.865 1.925A8.821 8.821 0 0 1 9 18a8.821 8.821 0 0 1-3.507-.703 9.031 9.031 0 0 1-2.865-1.925 9.031 9.031 0 0 1-1.925-2.865A8.821 8.821 0 0 1 0 9c0-1.242.234-2.411.703-3.507a9.031 9.031 0 0 1 1.925-2.865A9.031 9.031 0 0 1 5.493.703 8.821 8.821 0 0 1 9 0zm0 16.893c1.09 0 2.112-.208 3.067-.624a7.947 7.947 0 0 0 2.496-1.697 8.131 8.131 0 0 0 1.688-2.505A7.597 7.597 0 0 0 16.875 9c0-1.09-.208-2.112-.624-3.067a8.023 8.023 0 0 0-1.688-2.496 8.023 8.023 0 0 0-2.496-1.688A7.597 7.597 0 0 0 9 1.125c-1.09 0-2.112.208-3.067.624a8.023 8.023 0 0 0-2.496 1.688 8.023 8.023 0 0 0-1.688 2.496A7.597 7.597 0 0 0 1.125 9c0 1.09.208 2.112.624 3.067.416.955.979 1.79 1.688 2.505a7.947 7.947 0 0 0 2.496 1.697A7.597 7.597 0 0 0 9 16.893zm3.182-11.075a.537.537 0 0 1 .158.396c0 .158-.053.29-.158.395L9.79 9l2.39 2.39a.537.537 0 0 1 .159.396.537.537 0 0 1-.554.554.537.537 0 0 1-.395-.158L9 9.79l-2.39 2.39a.537.537 0 0 1-.396.159.537.537 0 0 1-.396-.158.537.537 0 0 1-.158-.396c0-.158.053-.29.158-.395L8.21 9l-2.39-2.39a.537.537 0 0 1-.159-.396.537.537 0 0 1 .554-.554c.158 0 .29.053.395.158L9 8.21l2.39-2.39a.537.537 0 0 1 .396-.159c.158 0 .29.053.396.158z"/>
</svg>
