<?xml version="1.0" encoding="UTF-8"?>
<svg width="35px" height="36px" viewBox="0 0 35 36" version="1.1" xmlns="http://www.w3.org/2000/svg" xmlns:xlink="http://www.w3.org/1999/xlink">
    <!-- Generator: Sketch 64 (93537) - https://sketch.com -->
    <title>Sssss</title>
    <desc>Created with Sketch.</desc>
    <g id="Page-1" stroke="none" stroke-width="1" fill="none" fill-rule="evenodd">
        <g id="Partner" transform="translate(-24.000000, -13.000000)" fill="#FFBD30" fill-rule="nonzero">
            <g id="Group-7" transform="translate(24.000000, 13.000000)">
                <g id="Sssss">
                    <path d="M0,34.7934605 L0.971117166,33.8252861 C1.31836512,33.479346 1.66495913,33.1324251 2.01089918,32.7845232 C2.07073569,32.7227248 2.11585831,32.6864305 2.20708447,32.747248 C2.71618529,33.0895913 3.29787466,33.2239782 3.89427793,33.3053951 C4.88599455,33.4388011 5.88065395,33.3956403 6.87531335,33.3711172 C7.11367847,33.3652316 7.35106267,33.3534605 7.58942779,33.3534605 C12.8328065,33.3534605 18.0761853,33.3534605 23.319564,33.3534605 C24.8439237,33.3534605 26.2623433,32.9856131 27.5473569,32.1635967 C29.5258856,30.8991826 30.7422343,29.0982016 31.1091008,26.7792916 C31.7722071,22.5838692 28.9726431,18.8171117 25.0744414,17.9774387 C24.4814709,17.8544943 23.8770548,17.7953023 23.2714986,17.8008719 C21.1654496,17.8008719 19.053515,17.8155858 16.9533515,17.8008719 C15.3024523,17.787139 13.6947139,17.5222888 12.1683924,16.8621253 C10.6724796,16.2117711 9.45318801,15.2357493 8.60076294,13.8310627 C8.06968065,12.9360623 7.71070075,11.9496162 7.54234332,10.9226158 C7.40310486,10.1628642 7.34523037,9.39043714 7.36970027,8.61841962 C7.46779292,5.8600545 8.6066485,3.61569482 10.7715531,1.90594005 C12.0245406,0.915465754 13.5340584,0.302947259 15.1229428,0.14027248 C15.3809432,0.11204093 15.6402961,0.0979599006 15.8998365,0.0980926431 L34.573733,0.0980926431 C34.6598607,0.0886718385 34.7469378,0.0932363202 34.8317166,0.110844687 C34.8415259,0.182452316 34.7807084,0.20893733 34.7444142,0.24719346 C34.0479564,0.950190736 33.3508447,1.65253406 32.653079,2.35422343 C32.596097,2.42043375 32.5104924,2.45482194 32.4235422,2.44643052 C32.373515,2.44152589 32.3254496,2.44643052 32.2724796,2.44643052 C26.8773842,2.44643052 21.4822888,2.42583106 16.0871935,2.45525886 C13.5642507,2.46899183 11.6524251,3.64119891 10.4596185,5.85318801 C8.44577657,9.58953678 10.6675749,14.2155858 14.8335695,15.0562398 C15.2580274,15.1403626 15.689795,15.1820935 16.1225068,15.1808174 C18.6542779,15.1808174 21.186049,15.1896458 23.7178202,15.1749319 C24.6189085,15.1719691 25.5164178,15.2884045 26.386921,15.5211989 C27.7616963,15.8657546 29.0526231,16.4846921 30.1821253,17.3408174 C31.8124251,18.599346 32.8453406,20.2502452 33.373079,22.2287738 C33.7275882,23.5630906 33.855906,24.947397 33.7526975,26.3241417 C33.420129,30.9033739 30.1120689,34.7169263 25.6257221,35.69297 C24.8565928,35.8556771 24.0723581,35.9362379 23.2862125,35.933297 C18.0140599,35.933297 12.7415804,35.933297 7.46877384,35.933297 C6.43782016,35.933297 5.40882834,35.9666485 4.37493188,35.9382016 C3.40773842,35.9117166 2.44643052,35.826376 1.5106267,35.5556403 C1.04394218,35.4306787 0.600207669,35.2319916 0.196185286,34.9670845 C0.118418693,34.9249091 0.051316164,34.8655234 0,34.7934605 Z" id="Path"></path>
                    <path d="M4.91836512,29.8682289 C4.94643338,29.7934767 4.99464355,29.7279516 5.05765668,29.6789101 C5.84239782,28.8941689 6.62713896,28.1094278 7.41188011,27.319782 C7.50302961,27.2188035 7.63510001,27.1646763 7.77089918,27.1726431 C9.04610354,27.1912807 10.3213079,27.2040327 11.5965123,27.2187466 L15.4682289,27.2619074 L19.293842,27.3050681 C20.5847411,27.319782 21.8756403,27.3315531 23.1665395,27.3492098 C23.4696458,27.3541144 23.7717711,27.373733 24.0680109,27.2903542 C24.8844013,27.0650385 25.4337139,26.301611 25.387938,25.4559367 C25.3421621,24.6102624 24.7136526,23.9105898 23.8777112,23.7747139 C23.7423204,23.754312 23.6055841,23.744147 23.4686649,23.7443052 C21.6519891,23.7174932 19.8349864,23.6906812 18.0176567,23.6638692 C16.359891,23.6409809 14.7014714,23.6197275 13.0423978,23.600109 C12.4734605,23.5922616 11.9035422,23.5804905 11.3346049,23.5687193 C11.2943869,23.5687193 11.2482834,23.586376 11.2119891,23.5441962 C11.2119891,23.480436 11.2737875,23.4519891 11.3100817,23.413733 C12.1085559,22.6113351 12.9099728,21.8118801 13.706485,21.0065395 C13.7839597,20.922385 13.8954771,20.8779946 14.0095913,20.8858856 C16.0368392,20.9283924 18.0624523,20.9679564 20.0864305,21.0045777 C21.24,21.026158 22.3935695,21.0477384 23.547139,21.0604905 C25.6571117,21.0850136 27.4090463,22.4337875 27.9348229,24.4446866 C28.5949864,26.9725341 26.8920981,29.5719891 24.3132425,29.9800545 C23.8227793,30.0575477 23.3323161,30.0330245 22.8418529,30.0300817 C21.8040327,30.0241962 20.7655586,30.0156948 19.7264305,30.0045777 C17.9607629,29.9888828 16.1950954,29.9722071 14.4294278,29.9545504 L10.7833243,29.9182561 L5.46179837,29.8682289 C5.28915531,29.866267 5.11651226,29.8682289 4.91836512,29.8682289 Z" id="Path"></path>
                    <path d="M24.5123706,10.3693733 C24.4927196,10.4391211 24.4502343,10.5002585 24.3917166,10.5429973 C23.7246866,11.2227793 23.0556948,11.8996185 22.3916076,12.5813624 C22.3109216,12.6725608 22.1934939,12.7226297 22.0718256,12.7177112 C20.1394005,12.7128065 18.2069755,12.7177112 16.2745504,12.7128065 C14.2642984,12.7028433 12.5950098,11.1582235 12.429354,9.15478376 C12.2636982,7.15134406 13.6566148,5.35352361 15.6379292,5.01351499 C15.8438765,4.97697663 16.0526349,4.95858311 16.2617984,4.95858311 C20.7086649,4.95858311 25.1574932,4.95858311 29.6082834,4.95858311 L29.813297,4.95858311 C29.8309537,5.04294278 29.7760218,5.06550409 29.7436512,5.09885559 C29.0717166,5.78550409 28.3968392,6.46332425 27.7298093,7.15291553 C27.6341302,7.25865939 27.4954508,7.31499789 27.3531335,7.30594005 C23.7040872,7.30594005 20.0553678,7.30594005 16.4069755,7.30594005 C16.1541456,7.29866515 15.9027638,7.34653146 15.6702997,7.44621253 C15.0225339,7.73984654 14.6624604,8.44106633 14.8012651,9.13860111 C14.9400699,9.83613589 15.541159,10.3460908 16.2519891,10.3693733 C16.3383106,10.3693733 16.4246322,10.3693733 16.5109537,10.3693733 L24.5123706,10.3693733 L24.5123706,10.3693733 Z" id="Path"></path>
                </g>
            </g>
        </g>
    </g>
</svg>