<?xml version="1.0"?>
<svg xmlns="http://www.w3.org/2000/svg" height="512px" viewBox="0 -192 512 512" width="512px"><g><g fill="#ffc107"><path d="m320 64c0 35.347656-28.652344 64-64 64s-64-28.652344-64-64 28.652344-64 64-64 64 28.652344 64 64zm0 0" data-original="#FFC107" class="active-path" data-old_color="#FFC107" fill="#FFFFFF"/><path d="m128 64c0 35.347656-28.652344 64-64 64s-64-28.652344-64-64 28.652344-64 64-64 64 28.652344 64 64zm0 0" data-original="#FFC107" class="active-path" data-old_color="#FFC107" fill="#FFFFFF"/><path d="m512 64c0 35.347656-28.652344 64-64 64s-64-28.652344-64-64 28.652344-64 64-64 64 28.652344 64 64zm0 0" data-original="#FFC107" class="active-path" data-old_color="#FFC107" fill="#FFFFFF"/></g></g> </svg>
