<?xml version="1.0" encoding="utf-8"?>
<!-- Generator: Adobe Illustrator 23.0.0, SVG Export Plug-In . SVG Version: 6.00 Build 0)  -->
<svg version="1.1" id="Capa_1" xmlns="http://www.w3.org/2000/svg" xmlns:xlink="http://www.w3.org/1999/xlink" x="0px" y="0px"
	 viewBox="0 0 512 512" style="enable-background:new 0 0 512 512;" xml:space="preserve">
<style type="text/css">
	.st0{fill:#2A2A2A;}
</style>
<g>
	<path class="st0" d="M467,46H45C20.2,46,0,66.2,0,91v150c0,24.8,20.2,45,45,45h422c24.8,0,45-20.2,45-45V91
		C512,66.2,491.8,46,467,46z M377,136c8.3,0,15,6.7,15,15s-6.7,15-15,15s-15-6.7-15-15S368.7,136,377,136z M437,226H75
		c-8.3,0-15-6.7-15-15s6.7-15,15-15h362c8.3,0,15,6.7,15,15S445.3,226,437,226z M437,166c-8.3,0-15-6.7-15-15s6.7-15,15-15
		s15,6.7,15,15S445.3,166,437,166z"/>
	<path class="st0" d="M136,316c-8.3,0-15,6.7-15,15v22.9c0,35.7-19.8,67.7-51.7,83.7c-7.4,3.7-10.4,12.7-6.7,20.1
		c3.7,7.4,12.6,10.4,20.1,6.7C124.8,443.4,151,401,151,353.9V331C151,322.7,144.3,316,136,316z"/>
	<path class="st0" d="M376,316c-8.3,0-15,6.7-15,15v22.9c0,47.1,26.2,89.4,68.3,110.5c7.5,3.7,16.4,0.7,20.1-6.7
		c3.7-7.4,0.7-16.4-6.7-20.1c-31.9-16-51.7-48-51.7-83.7V331C391,322.7,384.3,316,376,316L376,316z"/>
	<path class="st0" d="M271,451V331c0-8.3-6.7-15-15-15s-15,6.7-15,15v120c0,8.3,6.7,15,15,15C264.3,466,271,459.3,271,451z"/>
	<path class="st0" d="M331,451V331c0-8.3-6.7-15-15-15s-15,6.7-15,15v120c0,8.3,6.7,15,15,15S331,459.3,331,451z"/>
	<path class="st0" d="M211,451V331c0-8.3-6.7-15-15-15s-15,6.7-15,15v120c0,8.3,6.7,15,15,15S211,459.3,211,451z"/>
</g>
</svg>
