<?xml version="1.0" encoding="utf-8"?>
<!-- Generator: Adobe Illustrator 23.0.0, SVG Export Plug-In . SVG Version: 6.00 Build 0)  -->
<svg version="1.1" id="Layer_1" xmlns="http://www.w3.org/2000/svg" xmlns:xlink="http://www.w3.org/1999/xlink" x="0px" y="0px"
	 viewBox="0 0 512 512" style="enable-background:new 0 0 512 512;" xml:space="preserve">
<style type="text/css">
	.st0{fill:#2A2A2A;}
</style>
<g>
	<g>
		<path class="st0" d="M108.2,47.3c-41.8-23.4-83.8,22.2-60.8,61C-73,278.5,52.4,512,255.7,512c140.6,0,256-115.4,256-256
			C511.7,49.4,276.3-72.5,108.2,47.3z M319.8,136.1c-10.3,34.6,21.3,66.1,55.8,55.8c10.4,19.4,16.1,41.9,16.1,64.1
			c0,60.2-41.2,113.3-98,130c-2-3.5-4.3-6.9-7.2-9.8l0,0c-18.8-18.8-54.6-17.7-70.4,9c-9.9-3.1-19.4-7.3-28.3-12.6l36-48
			c9.9,4.7,20.8,7.3,32,7.3c41.4,0,76-34.6,76-76s-34.6-76-76-76c-40.8,0-78.2,34.7-74,82.5l-58.5,18.6
			C102.9,169.9,220.6,83.2,319.8,136.1z M251.4,241.6l-40.5,12.1c1.2-23.8,20.7-43.8,44.8-43.8c60.4,0,60.5,92,0,92
			c-4.6,0-9.1-0.8-13.4-2.2l25.4-34.9C276.4,253.5,265.2,237.5,251.4,241.6z M133.1,445.4l36.1-48.1c12.8,8,26.6,14,41.1,18.1
			c3.6,22.2,22.6,37.6,44.3,37.6c21.9,0,41.6-15.6,45.3-37.4C371,396.2,421.7,330.7,421.7,256c0-28.6-7.7-57.2-21.7-81.8
			c26.9-39.5-18.9-89.2-61.5-61.9C215.8,41.7,66.1,150.4,94.4,289.7l-57.9,17.4C22.1,244.2,35,179.7,71,127.6
			c35.8,12.6,69.9-21.5,57.2-57.2C278.1-33.3,481.7,75.9,481.7,256C481.7,433.8,282.6,543,133.1,445.4z"/>
	</g>
</g>
</svg>
