<?xml version="1.0" encoding="utf-8"?>
<!-- Generator: Adobe Illustrator 23.0.0, SVG Export Plug-In . SVG Version: 6.00 Build 0)  -->
<svg version="1.1" id="Layer_1" xmlns="http://www.w3.org/2000/svg" xmlns:xlink="http://www.w3.org/1999/xlink" x="0px" y="0px"
	 viewBox="0 0 512 512" style="enable-background:new 0 0 512 512;" xml:space="preserve">
<style type="text/css">
	.st0{fill:#2A2A2A;}
</style>
<path class="st0" d="M506.1,254.2c-3.9,3.9-9,5.8-14.1,5.8c-5.1,0-10.3-2-14.2-5.9L462,238.2V332c0,11-9,20-20,20c-11,0-20-9-20-20
	V197.9L269.9,44.8c-7.5-6.4-18.5-6.4-25.9-0.1L90,198.4c0,0.2,0,0.4,0,0.6v233c0,22.1,17.9,40,40,40h252c22.1,0,40-17.9,40-40
	c0-11,9-20,20-20c11,0,20,9,20,20c0,44.1-35.9,80-80,80H130c-44.1,0-80-35.9-80-80V238.3l-15.9,15.8c-7.8,7.8-20.5,7.8-28.3,0
	c-7.8-7.8-7.8-20.5,0-28.3L216.2,16c0.3-0.3,0.5-0.5,0.8-0.8c22.8-20.3,57.2-20.3,80,0.2c0.3,0.3,0.6,0.5,0.8,0.8l208.4,209.8
	C514,233.8,513.9,246.4,506.1,254.2z M296.9,211.2c3.9,3.8,9,5.8,14,5.8c5.2,0,10.3-2,14.2-6c7.8-7.9,7.7-20.5-0.2-28.3l-33.8-33.3
	c-19.4-19.2-51.1-19.2-70.5,0l-33.8,33.3c-7.9,7.8-7.9,20.4-0.2,28.3c7.8,7.9,20.4,7.9,28.3,0.2l20-19.7v182.9l-20-19.7
	c-7.9-7.8-20.5-7.7-28.3,0.2c-7.8,7.9-7.7,20.5,0.2,28.3l33.8,33.3c9.7,9.6,22.5,14.4,35.3,14.4c12.8,0,25.5-4.8,35.3-14.4
	l33.8-33.3c7.9-7.8,7.9-20.4,0.2-28.3s-20.4-7.9-28.3-0.2l-22,21.7V189.6L296.9,211.2z"/>
</svg>
