<?xml version="1.0" encoding="utf-8"?>
<!-- Generator: Adobe Illustrator 23.0.0, SVG Export Plug-In . SVG Version: 6.00 Build 0)  -->
<svg version="1.1" id="Capa_1" xmlns="http://www.w3.org/2000/svg" xmlns:xlink="http://www.w3.org/1999/xlink" x="0px" y="0px"
	 viewBox="0 0 512 512" style="enable-background:new 0 0 512 512;" xml:space="preserve">
<style type="text/css">
	.st0{fill:#2A2A2A;}
</style>
<g>
	<path class="st0" d="M45.2,150.6V512h195.9V150.6H45.2z M143.2,368.6l-53.2-53.2l21.3-21.3l31.9,31.9l31.9-31.9l21.3,21.3
		L143.2,368.6z"/>
	<path class="st0" d="M271.2,150.6V512h195.6V150.6H271.2z M401,368.6L369,336.6l-31.9,31.9l-21.3-21.3L369,294l53.2,53.2L401,368.6
		z"/>
	<path class="st0" d="M45.2,0v120.5h421.6V0H45.2z M150.6,75.3h-30.1V45.2h30.1V75.3z M210.8,75.3h-30.1V45.2h30.1V75.3z
		 M271.1,75.3h-30.1V45.2h30.1V75.3z M331.3,75.3h-30.1V45.2h30.1V75.3z M391.5,75.3h-30.1V45.2h30.1V75.3z"/>
</g>
</svg>
