<?xml version="1.0" encoding="utf-8"?>
<!-- Generator: Adobe Illustrator 23.0.0, SVG Export Plug-In . SVG Version: 6.00 Build 0)  -->
<svg version="1.1" id="Layer_1" xmlns="http://www.w3.org/2000/svg" xmlns:xlink="http://www.w3.org/1999/xlink" x="0px" y="0px"
	 viewBox="0 0 512 512" style="enable-background:new 0 0 512 512;" xml:space="preserve">
<style type="text/css">
	.st0{fill:#2A2A2A;}
</style>
<g>
	<path class="st0" d="M354.7,272H157.3c-2.8,0-5.1,2.3-5,5.1c0.6,23.1,2.2,45.3,4.6,66.2c0.3,3,3.2,5,6.2,4.3
		c30.2-7.7,61.3-11.6,93-11.6s62.8,3.9,93,11.6c2.9,0.7,5.8-1.3,6.2-4.3c2.4-20.9,4-43,4.5-66.2C359.8,274.3,357.5,272,354.7,272z"
		/>
	<path class="st0" d="M355.2,168.7c-0.3-3-3.2-5-6.2-4.3c-30.2,7.7-61.3,11.6-93,11.6s-62.8-3.9-93-11.6c-2.9-0.7-5.8,1.3-6.2,4.3
		c-2.4,20.9-4,43-4.6,66.2c-0.1,2.8,2.2,5.1,5,5.1h197.5c2.8,0,5.1-2.3,5-5.1C359.1,211.7,357.6,189.6,355.2,168.7L355.2,168.7z"/>
	<path class="st0" d="M349,126.5c-9-49.6-22.7-90.2-38.5-119c-0.7-1.3-1.9-2.2-3.4-2.5C290.4,1.7,273.4,0,256,0s-34.4,1.7-51.1,5.1
		c-1.4,0.3-2.7,1.2-3.4,2.5c-15.9,28.7-29.6,69.4-38.5,119c-0.5,2.5,1.1,5,3.6,5.7c28.5,7.7,58.5,11.8,89.4,11.8s60.9-4.1,89.4-11.8
		C347.9,131.5,349.5,129.1,349,126.5z"/>
	<path class="st0" d="M362.4,23c-4.1-1.9-8.3,2.2-6.7,6.4c0,0.1,0.1,0.1,0.1,0.2c9.7,25.3,17.6,54,23.6,85.1
		c0.6,3.1,3.9,4.9,6.8,3.7c19.7-8.1,38.5-17.9,56.1-29.4c2.6-1.7,3.1-5.3,1-7.6c-2-2.2-4.1-4.3-6.2-6.5
		C415.1,53,389.8,35.6,362.4,23L362.4,23z"/>
	<path class="st0" d="M396.7,240h109.4c2.9,0,5.2-2.5,5-5.4c-3.5-42.9-17.7-83.7-41.1-119.2c-1.5-2.3-4.6-3-7-1.4
		c-19.1,12.6-39.4,23.5-60.7,32.5c-4.4,1.8-8.8,3.6-13.2,5.3c-2.2,0.8-3.5,3-3.2,5.3c3.1,25.1,5.1,51.3,5.8,78.1
		C391.8,237.8,394,240,396.7,240L396.7,240z"/>
	<path class="st0" d="M163,385.5c9,49.6,22.7,90.2,38.5,119c0.7,1.3,1.9,2.2,3.4,2.5c16.6,3.4,33.7,5.1,51.1,5.1s34.4-1.7,51.1-5.1
		c1.4-0.3,2.7-1.2,3.4-2.5c15.9-28.7,29.6-69.4,38.5-119c0.5-2.5-1.1-5-3.6-5.7c-28.5-7.7-58.5-11.8-89.4-11.8s-60.9,4.1-89.4,11.8
		C164.1,380.5,162.5,382.9,163,385.5L163,385.5z"/>
	<path class="st0" d="M109.6,365.6c4.4-1.8,8.8-3.6,13.2-5.3c2.2-0.8,3.5-3,3.2-5.3c-3.1-25.1-5.1-51.3-5.8-78.1
		c-0.1-2.7-2.3-4.9-5-4.9H5.9c-2.9,0-5.2,2.5-5,5.4c3.5,42.9,17.7,83.7,41.1,119.2c1.5,2.3,4.7,3,7,1.4
		C68.1,385.4,88.3,374.6,109.6,365.6L109.6,365.6z"/>
	<path class="st0" d="M442.3,422.9c-17.7-11.4-36.4-21.3-56.1-29.4c-2.9-1.2-6.2,0.6-6.8,3.7c-5.9,31.1-13.8,59.8-23.6,85.1
		c0,0.1-0.1,0.1-0.1,0.2c-1.6,4.2,2.6,8.2,6.7,6.4c27.4-12.5,52.7-30,74.6-51.9c2.1-2.1,4.2-4.3,6.2-6.5
		C445.4,428.3,444.9,424.6,442.3,422.9L442.3,422.9z"/>
	<path class="st0" d="M391.7,276.9c-0.7,26.8-2.6,53-5.8,78.1c-0.3,2.3,1,4.5,3.2,5.3c4.4,1.7,8.8,3.4,13.2,5.3
		c21.3,9,41.5,19.9,60.7,32.5c2.3,1.5,5.4,0.9,7-1.4c23.5-35.5,37.6-76.3,41.1-119.2c0.2-2.9-2.1-5.4-5-5.4H396.7
		C394,272,391.8,274.2,391.7,276.9L391.7,276.9z"/>
	<path class="st0" d="M69.7,89.1c17.7,11.4,36.4,21.3,56.1,29.4c2.9,1.2,6.2-0.6,6.8-3.7c5.9-31.1,13.8-59.8,23.6-85.1
		c0-0.1,0.1-0.1,0.1-0.2c1.6-4.2-2.6-8.2-6.7-6.4C122.2,35.6,96.9,53,75,75c-2.1,2.1-4.2,4.3-6.2,6.5C66.6,83.7,67.1,87.4,69.7,89.1
		z"/>
	<path class="st0" d="M120.2,240c0.5-28.5,2.5-56.3,5.9-83c0.3-2.3-1-4.5-3.2-5.3c-4.4-1.7-8.8-3.4-13.2-5.3
		c-21.3-9-41.5-19.9-60.7-32.5c-2.3-1.5-5.4-0.9-7,1.4C18.6,150.9,4.4,191.6,0.9,234.6c-0.2,2.9,2.1,5.4,5,5.4H120.2z"/>
	<path class="st0" d="M149.6,489c4.1,1.9,8.3-2.2,6.7-6.4c0-0.1-0.1-0.1-0.1-0.2c-9.7-25.3-17.6-54-23.6-85.1
		c-0.6-3.1-3.9-4.9-6.8-3.7c-19.7,8.1-38.5,17.9-56.1,29.4c-2.6,1.7-3.1,5.3-1,7.6c2,2.2,4.1,4.3,6.2,6.5
		C96.9,459,122.2,476.4,149.6,489z"/>
</g>
</svg>
