<?xml version="1.0" encoding="utf-8"?>
<!-- Generator: Adobe Illustrator 23.0.0, SVG Export Plug-In . SVG Version: 6.00 Build 0)  -->
<svg version="1.1" id="bold" xmlns="http://www.w3.org/2000/svg" xmlns:xlink="http://www.w3.org/1999/xlink" x="0px" y="0px"
	 viewBox="0 0 512 512" style="enable-background:new 0 0 512 512;" xml:space="preserve">
<style type="text/css">
	.st0{fill:#2A2A2A;}
</style>
<path class="st0" d="M474.5,149.3h-5.1V144c0-32.4-26.3-58.7-58.7-58.7h-352C26.3,85.3,0,111.6,0,144v202.7
	c0,32.4,26.3,58.7,58.7,58.7h352c32.3,0,58.7-26.3,58.7-58.7v-5.3h5.1c20.6,0,37.3-16.7,37.3-37.3V186.7
	C511.8,166.1,495.1,149.3,474.5,149.3z M149.3,325.3c0,8.8-7.2,16-16,16H80c-8.8,0-16-7.2-16-16v-160c0-8.8,7.2-16,16-16h53.3
	c8.8,0,16,7.2,16,16V325.3z M277.3,325.3c0,8.8-7.2,16-16,16H208c-8.8,0-16-7.2-16-16v-160c0-8.8,7.2-16,16-16h53.3
	c8.8,0,16,7.2,16,16V325.3z"/>
</svg>
