<?xml version="1.0" encoding="utf-8"?>
<!-- Generator: Adobe Illustrator 23.0.0, SVG Export Plug-In . SVG Version: 6.00 Build 0)  -->
<svg version="1.1" id="Capa_1" xmlns="http://www.w3.org/2000/svg" xmlns:xlink="http://www.w3.org/1999/xlink" x="0px" y="0px"
	 viewBox="0 0 512 512" style="enable-background:new 0 0 512 512;" xml:space="preserve">
<style type="text/css">
	.st0{fill:#2A2A2A;}
</style>
<g>
	<path class="st0" d="M348.5,340.7c24.7-34.3,39.8-73.7,44.6-115.3l-137-39l-137,39c4.7,41.6,19.9,81,44.6,115.3
		c24,33.4,55.9,60.2,92.5,78C292.6,400.9,324.5,374,348.5,340.7z"/>
	<path class="st0" d="M256,154.6l138.6,39.4v-63.6L256,91l-138.6,39.4v63.6L256,154.6z"/>
	<path class="st0" d="M271.3,0v63.6l153.9,43.8v89.7c0,58.4-18,114.2-51.9,161.4c-26.6,36.9-61.7,66.7-102,86.7V512
		c60.9-23.7,113.2-64.3,151.7-117.8c41.5-57.7,63.4-125.9,63.4-197.1V61.2L271.3,0z"/>
	<path class="st0" d="M240.7,445.2c-40.3-20-75.5-49.8-102-86.7c-34-47.2-51.9-103-51.9-161.4v-89.7l153.9-43.8V0L25.6,61.2v135.9
		c0,71.3,21.9,139.5,63.4,197.1c38.5,53.5,90.8,94,151.7,117.8V445.2z"/>
</g>
</svg>
