<?xml version="1.0" encoding="UTF-8"?>
<svg width="80px" height="80px" viewBox="0 0 80 80" version="1.1" xmlns="http://www.w3.org/2000/svg" xmlns:xlink="http://www.w3.org/1999/xlink">
    <!-- Generator: Sketch 64 (93537) - https://sketch.com -->
    <title>Group 6 Copy 4</title>
    <desc>Created with Sketch.</desc>
    <defs>
        <circle id="path-1" cx="28" cy="28" r="28"></circle>
        <filter x="-33.0%" y="-31.2%" width="166.1%" height="166.1%" filterUnits="objectBoundingBox" id="filter-2">
            <feOffset dx="0" dy="1" in="SourceAlpha" result="shadowOffsetOuter1"></feOffset>
            <feGaussianBlur stdDeviation="6" in="shadowOffsetOuter1" result="shadowBlurOuter1"></feGaussianBlur>
            <feColorMatrix values="0 0 0 0 0.97254902   0 0 0 0 0.470588235   0 0 0 0 0.470588235  0 0 0 1 0" type="matrix" in="shadowBlurOuter1"></feColorMatrix>
        </filter>
    </defs>
    <g id="Page-1" stroke="none" stroke-width="1" fill="none" fill-rule="evenodd">
        <g id="Partner-Copy" transform="translate(-1056.000000, -463.000000)">
            <g id="Group-6-Copy-4" transform="translate(1068.000000, 474.000000)">
                <g id="Oval">
                    <use fill="black" fill-opacity="1" filter="url(#filter-2)" xlink:href="#path-1"></use>
                    <use fill="#F87878" fill-rule="evenodd" xlink:href="#path-1"></use>
                </g>
                <g id="monitor" transform="translate(13.000000, 13.000000)" fill="#FFFFFF" fill-rule="nonzero" stroke="#FFFFFF" stroke-width="0.8">
                    <path d="M22.3569806,13.7142382 L22.3569806,11.1717175 L20.6319391,10.8841828 C20.5034626,10.4171468 20.3169806,9.96839335 20.0754017,9.54457064 L21.0929917,8.1200277 L19.2951524,6.32218837 L17.8705263,7.33969529 C17.4466205,7.09803324 16.9980332,6.91163435 16.5309141,6.78315789 L16.2434626,5.05811634 L13.7008587,5.05811634 L13.4134072,6.78315789 C12.9462881,6.91163435 12.4976177,7.09811634 12.073795,7.33977839 L10.649169,6.32218837 L8.85132964,8.1200277 L9.86891967,9.54457064 C9.62717452,9.96847645 9.44077562,10.4171468 9.31229917,10.8841828 L7.58725762,11.1717175 L7.58725762,13.7142382 L9.31221607,14.0016898 C9.44069252,14.4687258 9.62717452,14.9173961 9.86883657,15.3413019 L8.85124654,16.7658449 L10.6490859,18.5637673 L12.0737119,17.5461773 C12.4977008,17.7878393 12.9462881,17.9742382 13.4133241,18.1027147 L13.7007756,19.8277562 L16.2433795,19.8277562 L16.530831,18.1027147 C16.997867,17.9743213 17.4464543,17.7879224 17.8704432,17.5461773 L19.2951524,18.5637673 L21.0929917,16.7658449 L20.0754017,15.3413019 C20.3170637,14.9173961 20.5034626,14.4688089 20.6319391,14.0016898 L22.3569806,13.7142382 Z M19.9701939,16.6730194 L19.2021607,17.4410526 L17.9041828,16.5138781 L17.659446,16.6698615 C17.1645706,16.9852355 16.626482,17.2086981 16.0603878,17.3340997 L15.7770914,17.3968421 L15.5152355,18.968144 L14.4290028,18.968144 L14.1670637,17.396759 L13.8837673,17.3340166 C13.3176731,17.208615 12.7796676,16.9851524 12.2847091,16.6696953 L12.0399723,16.5138781 L10.7419945,17.4409695 L9.97396122,16.6729363 L10.9011357,15.3749584 L10.7451524,15.1302216 C10.4297784,14.6353463 10.2062327,14.0974238 10.080831,13.5310803 L10.0181717,13.2477839 L8.44686981,12.985928 L8.44686981,11.8996953 L10.0181717,11.6377562 L10.0809141,11.3544598 C10.2063158,10.7882825 10.4298615,10.2501939 10.7452355,9.75531856 L10.9011357,9.51058172 L9.97404432,8.21268698 L10.7420776,7.44465374 L12.0400554,8.37174515 L12.2847922,8.21576177 C12.7795845,7.90047091 13.31759,7.67692521 13.8839335,7.55144044 L14.1672299,7.48869806 L14.4290859,5.91739612 L15.5152355,5.91739612 L15.7770914,7.48869806 L16.0603047,7.55144044 C16.6266482,7.67692521 17.1646537,7.90038781 17.659446,8.21576177 L17.9041828,8.37174515 L19.2021607,7.44465374 L19.9701939,8.21268698 L19.0430194,9.51058172 L19.1990028,9.75531856 C19.5142936,10.2501939 19.7378393,10.7882825 19.8633241,11.3545429 L19.9260665,11.6378393 L21.4973684,11.8996953 L21.4973684,12.985928 L19.9260665,13.2477839 L19.8633241,13.5310803 C19.7379224,14.0973407 19.5143767,14.6354294 19.1990028,15.1302216 L19.0430194,15.3749584 L19.9701939,16.6730194 Z" id="Shape"></path>
                    <path d="M14.9720776,9.52927978 C13.3654571,9.52927978 12.058338,10.8363989 12.058338,12.4430194 C12.058338,14.0496399 13.3654571,15.356759 14.9720776,15.356759 C16.5786981,15.356759 17.8858172,14.0496399 17.8858172,12.4430194 C17.8858172,10.8363989 16.5787812,9.52927978 14.9720776,9.52927978 Z M14.9720776,14.4971468 C13.8393906,14.4971468 12.917867,13.5756233 12.917867,12.4429363 C12.917867,11.3103324 13.8393906,10.3888089 14.9720776,10.3888089 C16.1047645,10.3888089 17.026205,11.3102493 17.026205,12.4429363 C17.026205,13.5756233 16.1048476,14.4971468 14.9720776,14.4971468 Z" id="Shape"></path>
                    <path d="M0,0 L0,24.8860388 L29.9443213,24.8860388 L29.9443213,0 L0,0 Z M29.0847091,24.0264266 L0.859529086,24.0264266 L0.859529086,0.859529086 L29.0847091,0.859529086 L29.0847091,24.0264266 Z" id="Shape"></path>
                    <path d="M2.52914127,2.52905817 L2.52914127,22.3568975 L27.4151801,22.3568975 L27.4151801,2.52905817 L2.52914127,2.52905817 Z M26.5555679,21.4973684 L3.38867036,21.4973684 L3.38867036,3.38867036 L26.5555679,3.38867036 L26.5555679,21.4973684 L26.5555679,21.4973684 Z" id="Shape"></path>
                    <rect id="Rectangle" x="9.48448753" y="24.4560665" width="1" height="5.05803324"></rect>
                    <rect id="Rectangle" x="19.600554" y="24.4560665" width="1" height="5.05803324"></rect>
                    <rect id="Rectangle" x="6.75207756" y="29.0848753" width="16.4393352" height="1"></rect>
                </g>
            </g>
        </g>
    </g>
</svg>