<?xml version="1.0" encoding="UTF-8"?>
<svg width="80px" height="80px" viewBox="0 0 80 80" version="1.1" xmlns="http://www.w3.org/2000/svg" xmlns:xlink="http://www.w3.org/1999/xlink">
    <!-- Generator: Sketch 64 (93537) - https://sketch.com -->
    <title>Group 9</title>
    <desc>Created with Sketch.</desc>
    <defs>
        <circle id="path-1" cx="28" cy="28" r="28"></circle>
        <filter x="-33.0%" y="-31.2%" width="166.1%" height="166.1%" filterUnits="objectBoundingBox" id="filter-2">
            <feOffset dx="0" dy="1" in="SourceAlpha" result="shadowOffsetOuter1"></feOffset>
            <feGaussianBlur stdDeviation="6" in="shadowOffsetOuter1" result="shadowBlurOuter1"></feGaussianBlur>
            <feColorMatrix values="0 0 0 0 0.647058824   0 0 0 0 0.450980392   0 0 0 0 0.819607843  0 0 0 1 0" type="matrix" in="shadowBlurOuter1"></feColorMatrix>
        </filter>
    </defs>
    <g id="Page-1" stroke="none" stroke-width="1" fill="none" fill-rule="evenodd">
        <g id="Partner-Copy" transform="translate(-437.000000, -463.000000)">
            <g id="Group-9" transform="translate(449.000000, 474.000000)">
                <g id="Group-6-Copy-2">
                    <g id="Oval">
                        <use fill="black" fill-opacity="1" filter="url(#filter-2)" xlink:href="#path-1"></use>
                        <use fill="#A573D1" fill-rule="evenodd" xlink:href="#path-1"></use>
                    </g>
                </g>
                <g id="startup" transform="translate(13.000000, 13.000000)" fill="#FFFFFF" fill-rule="nonzero" stroke="#FFFFFF" stroke-width="0.8">
                    <path d="M19.0754294,5.16141274 C17.398338,2.37132964 15.6736288,0.500443213 15.3452909,0.154155125 C15.2526316,0.0561772853 15.1233241,0 14.9905263,0 C14.8579778,0 14.7288366,0.0560110803 14.6360942,0.153822715 C14.3073407,0.500526316 12.5826316,2.37149584 10.9057064,5.16141274 C8.71603878,8.80429363 7.60570637,12.317867 7.60570637,15.6044044 C7.60570637,19.5912465 8.38038781,23.2552355 9.78706371,25.9214127 L9.90797784,26.1506094 L20.0729086,26.1506094 L20.1939889,25.9214127 C21.6006648,23.2552355 22.3754294,19.5912465 22.3754294,15.6044044 C22.3754294,12.317867 21.2651801,8.80429363 19.0754294,5.16141274 Z M19.5517729,25.2910803 L10.4293629,25.2910803 C9.16138504,22.7661773 8.46531856,19.3398615 8.46531856,15.6044044 C8.46531856,12.4760111 9.53426593,9.11144044 11.64241,5.60418283 C12.9911634,3.36033241 14.3999169,1.69894737 14.9905263,1.03903047 C15.5810526,1.69894737 16.9898061,3.36024931 18.3386427,5.60418283 C20.4468698,9.11152355 21.5158172,12.4760942 21.5158172,15.6044044 C21.5158172,19.3397784 20.8196676,22.7660942 19.5517729,25.2910803 Z" id="Shape"></path>
                    <path d="M29.8013019,24.0375623 L22.1727424,17.1816066 L21.5981717,17.8209141 L28.5030748,24.0265097 L20.4014127,24.0265097 L20.4014127,24.8860388 L29.4694737,24.8860388 C29.664349,24.8860388 29.8411911,24.7722715 29.9198892,24.5965928 C30.0061496,24.4049584 29.9591136,24.1809141 29.8013019,24.0375623 Z" id="Path"></path>
                    <path d="M1.47789474,24.0265928 L1.47789474,24.0265097 L8.38288089,17.8209141 L7.80831025,17.1816066 L0.17800554,24.0390582 C0.0216897507,24.1810803 -0.0251800554,24.4052078 0.0610803324,24.5966759 C0.140110803,24.7725208 0.316952909,24.8861219 0.511578947,24.8861219 L9.57963989,24.8861219 L9.57963989,24.0265928 L1.47789474,24.0265928 Z" id="Path"></path>
                    <rect id="Rectangle" x="11.3992521" y="25.7210526" width="1" height="3.16121884"></rect>
                    <rect id="Rectangle" x="17.7225208" y="25.7210526" width="1" height="3.16121884"></rect>
                    <rect id="Rectangle" x="14.5604709" y="26.9858726" width="1" height="3.16121884"></rect>
                    <rect id="Rectangle" x="11.597867" y="4.42603878" width="6.78448753" height="1"></rect>
                    <path d="M14.9905263,10.7487258 C13.3589751,10.7487258 12.031662,12.0760388 12.031662,13.70759 C12.031662,15.3391413 13.3589751,16.6664543 14.9905263,16.6664543 C16.6219945,16.6664543 17.9493906,15.3391413 17.9493906,13.70759 C17.9493906,12.0761219 16.6220776,10.7487258 14.9905263,10.7487258 Z M14.9905263,15.8069252 C13.8329917,15.8069252 12.8911911,14.8651247 12.8911911,13.70759 C12.8911911,12.5500554 13.8329917,11.6082548 14.9905263,11.6082548 C16.1480609,11.6082548 17.0897784,12.5500554 17.0897784,13.70759 C17.0898615,14.8651247 16.148144,15.8069252 14.9905263,15.8069252 Z" id="Shape"></path>
                </g>
            </g>
        </g>
    </g>
</svg>