<?xml version="1.0" encoding="UTF-8"?>
<svg width="80px" height="80px" viewBox="0 0 80 80" version="1.1" xmlns="http://www.w3.org/2000/svg" xmlns:xlink="http://www.w3.org/1999/xlink">
    <!-- Generator: Sketch 64 (93537) - https://sketch.com -->
    <title>Group 11</title>
    <desc>Created with Sketch.</desc>
    <defs>
        <circle id="path-1" cx="28" cy="28" r="28"></circle>
        <filter x="-33.0%" y="-31.2%" width="166.1%" height="166.1%" filterUnits="objectBoundingBox" id="filter-2">
            <feOffset dx="0" dy="1" in="SourceAlpha" result="shadowOffsetOuter1"></feOffset>
            <feGaussianBlur stdDeviation="6" in="shadowOffsetOuter1" result="shadowBlurOuter1"></feGaussianBlur>
            <feColorMatrix values="0 0 0 0 0.97254902   0 0 0 0 0.725490196   0 0 0 0 0.325490196  0 0 0 1 0" type="matrix" in="shadowBlurOuter1"></feColorMatrix>
        </filter>
    </defs>
    <g id="Page-1" stroke="none" stroke-width="1" fill="none" fill-rule="evenodd">
        <g id="Partner-Copy" transform="translate(-120.000000, -463.000000)">
            <g id="Group-11" transform="translate(132.000000, 474.000000)">
                <g id="Group-6">
                    <g id="Oval">
                        <use fill="black" fill-opacity="1" filter="url(#filter-2)" xlink:href="#path-1"></use>
                        <use fill="#F8B953" fill-rule="evenodd" xlink:href="#path-1"></use>
                    </g>
                </g>
                <g id="network-2" transform="translate(13.000000, 12.000000)" fill="#FFFFFF" fill-rule="nonzero" stroke="#FFFFFF" stroke-width="0.8">
                    <path d="M17.7857402,27.8582175 C17.2170997,26.837855 16.138006,26.2040483 14.9696375,26.2040483 C13.8012689,26.2040483 12.7221752,26.8379456 12.1526284,27.8599396 C11.8805438,28.3529003 11.7425982,28.8814804 11.7425982,29.4310876 C11.7425982,31.2105136 13.1903021,32.6581269 14.9696375,32.6581269 C16.7489728,32.6581269 18.1966767,31.2105136 18.1966767,29.4310876 C18.1966767,28.8814804 18.0587311,28.3529003 17.7857402,27.8582175 Z M14.9696375,31.7207855 C13.7071903,31.7207855 12.6800302,30.6936254 12.6800302,29.4311782 C12.6800302,29.0418127 12.7787311,28.6655891 12.9724169,28.3146526 C13.3756495,27.5911178 14.1408761,27.141571 14.9695468,27.141571 C15.7982175,27.141571 16.5634441,27.5911178 16.965861,28.3130211 C17.1604532,28.6655891 17.2591541,29.0418127 17.2591541,29.4311782 C17.2592447,30.6936254 16.2321752,31.7207855 14.9696375,31.7207855 Z" id="Shape"></path>
                    <path d="M29.805861,22.0393958 C29.5811782,21.2083686 29.046435,20.5151964 28.3043202,20.0900302 C27.9470393,19.8803927 27.5526888,19.7442598 27.1325982,19.6853474 C26.985861,19.6646828 26.8361329,19.6541692 26.6875831,19.6541692 C25.5419637,19.6541692 24.4724773,20.2718429 23.8954985,21.2675529 C23.2887915,22.3233535 23.3247734,23.6103625 23.9890332,24.628006 C24.2549547,25.0577946 24.6198489,25.4089124 25.0741088,25.6719335 C25.5662538,25.956435 26.1245619,26.1067976 26.6887613,26.1067976 C27.8364653,26.1067976 28.9083082,25.4891239 29.4869184,24.4933233 C29.9179758,23.7447734 30.0312689,22.8733233 29.805861,22.0393958 Z M28.6754683,24.0237462 C28.2648943,24.7303323 27.5036556,25.1692749 26.6887613,25.1692749 C26.2890634,25.1692749 25.8929909,25.0623263 25.5435952,24.8603927 C25.2232931,24.6749547 24.9677946,24.4295166 24.7838973,24.1307855 L24.7767372,24.1194562 C24.303716,23.3980967 24.2775227,22.4842296 24.7075831,21.7359517 C25.1166163,21.03 25.8754079,20.5915106 26.6876737,20.5915106 C26.7925378,20.5915106 26.8982175,20.5989426 27.0022659,20.6136254 C27.3006344,20.6554079 27.5790634,20.7512085 27.8341994,20.9009366 C28.3629607,21.2038369 28.7418127,21.6950755 28.9009668,22.2840181 C29.0608459,22.875861 28.9804532,23.4942598 28.6754683,24.0237462 Z" id="Shape"></path>
                    <path d="M29.4861027,8.16335347 C28.9083082,7.16909366 27.8364653,6.55141994 26.6887613,6.55141994 C26.1245619,6.55141994 25.5661631,6.70178248 25.0738369,6.98637462 C24.6198489,7.2492145 24.254864,7.60042296 23.9890332,8.03021148 C23.3247734,9.04785498 23.2888822,10.334864 23.8964048,11.3921148 C24.4724773,12.3863746 25.5420544,13.0040483 26.6875831,13.0040483 C26.8361329,13.0040483 26.985861,12.9935347 27.132145,12.9729607 C27.5525982,12.9140483 27.9469486,12.7779154 28.3000604,12.5706344 C29.046435,12.1430211 29.5812689,11.4498489 29.805861,10.6187311 C30.0313595,9.78489426 29.9180665,8.91344411 29.4861027,8.16335347 Z M28.9008761,10.37429 C28.7417221,10.9632326 28.3628701,11.4543807 27.8298489,11.7597281 C27.5789728,11.9070091 27.3004532,12.0028097 27.0017221,12.0446828 C26.8982175,12.0592749 26.7925378,12.0666163 26.6875831,12.0666163 C25.8752266,12.0666163 25.1165257,11.6281269 24.7083988,10.9236254 C24.2775227,10.1738973 24.3038066,9.25993958 24.7767372,8.53858006 L24.7839879,8.52725076 C24.9678852,8.22851964 25.2233837,7.98308157 25.5434139,7.79782477 C25.8930816,7.59570997 26.2891541,7.48885196 26.688852,7.48885196 C27.5037462,7.48885196 28.2649849,7.92779456 28.6746526,8.63283988 C28.9804532,9.16404834 29.0608459,9.78244713 28.9008761,10.37429 Z" id="Shape"></path>
                    <path d="M14.9696375,0 C13.1903021,0 11.7425982,1.44761329 11.7425982,3.22703927 C11.7425982,3.77655589 11.8805438,4.30522659 12.1535347,4.79990937 C12.7221752,5.8202719 13.8012689,6.45407855 14.9696375,6.45407855 C16.138006,6.45407855 17.2170091,5.8202719 17.7866465,4.79818731 C18.0587311,4.30522659 18.1966767,3.77664653 18.1966767,3.22703927 C18.1966767,1.44770393 16.7490634,0 14.9696375,0 Z M16.9666767,4.34356495 C16.5635347,5.0670997 15.7982175,5.51664653 14.9695468,5.51664653 C14.1408761,5.51664653 13.3756495,5.0670997 12.9733233,4.34528701 C12.7786405,3.9926284 12.6800302,3.61640483 12.6800302,3.22712991 C12.6800302,1.96468278 13.7071903,0.937522659 14.9696375,0.937522659 C16.2320846,0.937522659 17.2591541,1.96459215 17.2591541,3.22712991 C17.2590634,3.61640483 17.1604532,3.99253776 16.9666767,4.34356495 Z" id="Shape"></path>
                    <path d="M5.95006042,8.03030211 C5.68432024,7.6005136 5.31933535,7.24939577 4.86489426,6.98628399 C4.37283988,6.70178248 3.81453172,6.55141994 3.25033233,6.55141994 C2.10271903,6.55141994 1.0307855,7.16909366 0.452175227,8.16489426 C0.0210271903,8.91344411 -0.0921752266,9.78489426 0.133232628,10.6189124 C0.357915408,11.4499396 0.892567976,12.1431118 1.63477341,12.5682779 C1.99205438,12.778006 2.38649547,12.914139 2.80640483,12.9728701 C2.95314199,12.9936254 3.10296073,13.004139 3.25151057,13.004139 C4.39712991,13.004139 5.46670695,12.3865559 6.04350453,11.3907553 C6.65030211,10.334864 6.61432024,9.04785498 5.95006042,8.03030211 Z M5.23160121,10.9222659 C4.82265861,11.6282175 4.0639577,12.0667069 3.25160121,12.0667069 C3.14673716,12.0667069 3.0410574,12.0592749 2.93700906,12.0445921 C2.63873112,12.0028097 2.36030211,11.9070091 2.10516616,11.757281 C1.57640483,11.4543807 1.19755287,10.963142 1.03839879,10.37429 C0.878338369,9.78244713 0.958731118,9.1639577 1.26380665,8.63438066 C1.67438066,7.92779456 2.43561934,7.4889426 3.2505136,7.4889426 C3.65021148,7.4889426 4.04628399,7.5958006 4.39567976,7.79782477 C4.71598187,7.98326284 4.971571,8.22870091 5.15537764,8.52743202 L5.1626284,8.53876133 C5.63537764,9.26012085 5.661571,10.1739879 5.23160121,10.9222659 Z" id="Shape"></path>
                    <path d="M6.04277946,21.2660121 C5.46670695,20.2716616 4.39712991,19.6539879 3.25151057,19.6539879 C3.10305136,19.6539879 2.95332326,19.6645015 2.80694864,19.6850755 C2.38640483,19.7439879 1.99196375,19.8802115 1.63903323,20.0874018 C0.89265861,20.5150151 0.357824773,21.2081873 0.133232628,22.0393051 C-0.0921752266,22.8732326 0.0211178248,23.7447734 0.453081571,24.4947734 C1.0307855,25.4890332 2.10271903,26.1067976 3.25042296,26.1067976 C3.81462236,26.1067976 4.37293051,25.956435 4.86516616,25.6718429 C5.31933535,25.4089124 5.68432024,25.0577039 5.95006042,24.628006 C6.61432024,23.6102719 6.65030211,22.3232628 6.04277946,21.2660121 Z M5.16244713,24.1194562 L5.15528701,24.1307855 C4.971571,24.429426 4.71589124,24.6749547 4.39586103,24.8602115 C4.04628399,25.0623263 3.65012085,25.1691843 3.2505136,25.1691843 C2.4355287,25.1691843 1.67429003,24.7302417 1.26462236,24.0251964 C0.958731118,23.4940785 0.878429003,22.8755891 1.03830816,22.2837462 C1.19746224,21.6948036 1.5763142,21.2036556 2.10933535,20.8983082 C2.36021148,20.7511178 2.63864048,20.6552266 2.9373716,20.6134441 C3.04087613,20.598852 3.14655589,20.5914199 3.25141994,20.5914199 C4.06377644,20.5914199 4.82247734,21.0299094 5.23069486,21.7345015 C5.66166163,22.4842296 5.63546828,23.3980967 5.16244713,24.1194562 Z" id="Shape"></path>
                    <path d="M27.0017221,12.0446828 C26.8982175,12.0592749 26.7924471,12.0666163 26.6875831,12.0666163 C25.8752266,12.0666163 25.1165257,11.6281269 24.7083988,10.9236254 C24.2775227,10.1738066 24.3038066,9.25993958 24.7767372,8.53858006 L25.0588822,8.10806647 L17.19,3.94268882 L16.9666767,4.34338369 C16.5635347,5.06691843 15.7982175,5.51646526 14.9695468,5.51646526 C14.1408761,5.51646526 13.3756495,5.06700906 12.9724169,4.34338369 L12.7490937,3.94268882 L4.88021148,8.1081571 L5.16244713,8.53867069 C5.63537764,9.26003021 5.661571,10.1739879 5.23160121,10.9222659 C4.82265861,11.6282175 4.0639577,12.0667069 3.25160121,12.0667069 C3.14673716,12.0667069 3.0410574,12.0593656 2.93746224,12.0447734 L2.40326284,11.9694562 L2.40326284,20.688852 L2.93746224,20.6135347 C3.04096677,20.5989426 3.14664653,20.5915106 3.25151057,20.5915106 C4.06386707,20.5915106 4.82256798,21.0300906 5.2307855,21.7345921 C5.661571,22.4842296 5.63537764,23.3980967 5.16244713,24.1195468 L4.88021148,24.5500604 L12.7490937,28.7154381 L12.9724169,28.3147432 C13.3756495,27.5912085 14.1408761,27.1416616 14.9695468,27.1416616 C15.7982175,27.1416616 16.5634441,27.5911178 16.9666767,28.3147432 L17.19,28.7154381 L25.0588822,24.5501511 L24.7767372,24.1196375 C24.303716,23.3982779 24.2775227,22.4844109 24.7075831,21.7361329 C25.1166163,21.0301813 25.8754079,20.5916918 26.6876737,20.5916918 C26.7925378,20.5916918 26.8982175,20.5991239 27.0017221,20.613716 L27.5359215,20.6890332 L27.5359215,11.9695468 L27.0017221,12.0446828 Z M26.5984894,19.6552568 C25.4867674,19.686435 24.4575227,20.2975831 23.8955891,21.2673716 C23.3740785,22.1748036 23.3274018,23.2529003 23.7462236,24.1840785 L17.5332326,27.4729305 C16.9290634,26.6808761 15.9828399,26.2040483 14.9696375,26.2040483 C13.9563444,26.2040483 13.0102115,26.6808761 12.4060423,27.4729305 L6.19305136,24.1840785 C6.61187311,23.2529003 6.56501511,22.1745317 6.04287009,21.2659215 C5.48175227,20.2974924 4.45259819,19.6863444 3.34087613,19.6552568 L3.34087613,13.0028701 C4.45259819,12.9717825 5.4818429,12.3605438 6.04377644,11.3907553 C6.56528701,10.4833233 6.61196375,9.40522659 6.19314199,8.47404834 L12.4061329,5.18519637 C13.0103021,5.97734139 13.956435,6.45407855 14.9697281,6.45407855 C15.9829305,6.45407855 16.9290634,5.97734139 17.5333233,5.18519637 L23.7463142,8.47404834 C23.3274924,9.40522659 23.3743505,10.4835045 23.8964955,11.3922054 C24.4576133,12.3606344 25.4867674,12.9716918 26.5984894,13.0028701 L26.5984894,19.6552568 L26.5984894,19.6552568 Z" id="Shape"></path>
                    <path d="M14.9777946,13.1020242 C13.1983686,13.1020242 11.7507553,14.5496375 11.7507553,16.3290634 C11.7507553,18.1084894 13.1983686,19.5561027 14.9777946,19.5561027 C16.7572205,19.5561027 18.2048338,18.1084894 18.2048338,16.3290634 C18.2049245,14.5497281 16.7572205,13.1020242 14.9777946,13.1020242 Z M14.9777946,18.6186707 C13.7153474,18.6186707 12.6881873,17.5915106 12.6881873,16.3290634 C12.6881873,15.0666163 13.7153474,14.0394562 14.9777946,14.0394562 C16.2402417,14.0394562 17.2674018,15.0666163 17.2674018,16.3290634 C17.2674018,17.5915106 16.2403323,18.6186707 14.9777946,18.6186707 Z" id="Shape"></path>
                    <path d="M14.9777946,9.33706949 C11.1223867,9.33706949 7.9858006,12.4736556 7.9858006,16.3290634 C7.9858006,20.1845619 11.1223867,23.321148 14.9777946,23.321148 C18.8332024,23.321148 21.9698792,20.1845619 21.9698792,16.3290634 C21.9698792,12.4737462 18.8332931,9.33706949 14.9777946,9.33706949 Z M14.9777946,22.383716 C11.6392749,22.383716 8.92323263,19.6675831 8.92323263,16.3291541 C8.92323263,12.9906344 11.6392749,10.2745921 14.9777946,10.2745921 C18.3163142,10.2745921 21.0323565,12.9906344 21.0323565,16.3291541 C21.0323565,19.6676737 18.3163142,22.383716 14.9777946,22.383716 Z" id="Shape"></path>
                    <rect id="Rectangle" x="14.5096677" y="7.36404834" width="1" height="6.20574018"></rect>
                    <rect id="Rectangle" x="14.5096677" y="19.0876133" width="1" height="6.20574018"></rect>
                    <rect id="Rectangle" x="6.01359517" y="15.8601208" width="6.20574018" height="1"></rect>
                    <rect id="Rectangle" x="17.7190332" y="15.5429003" width="6.20574018" height="1"></rect>
                </g>
            </g>
        </g>
    </g>
</svg>