<?xml version="1.0" encoding="UTF-8"?>
<svg width="80px" height="80px" viewBox="0 0 80 80" version="1.1" xmlns="http://www.w3.org/2000/svg" xmlns:xlink="http://www.w3.org/1999/xlink">
    <!-- Generator: Sketch 64 (93537) - https://sketch.com -->
    <title>Group 10</title>
    <desc>Created with Sketch.</desc>
    <defs>
        <circle id="path-1" cx="28" cy="28" r="28"></circle>
        <filter x="-33.0%" y="-31.2%" width="166.1%" height="166.1%" filterUnits="objectBoundingBox" id="filter-2">
            <feOffset dx="0" dy="1" in="SourceAlpha" result="shadowOffsetOuter1"></feOffset>
            <feGaussianBlur stdDeviation="6" in="shadowOffsetOuter1" result="shadowBlurOuter1"></feGaussianBlur>
            <feColorMatrix values="0 0 0 0 0.349019608   0 0 0 0 0.745098039   0 0 0 0 0.988235294  0 0 0 1 0" type="matrix" in="shadowBlurOuter1"></feColorMatrix>
        </filter>
    </defs>
    <g id="Page-1" stroke="none" stroke-width="1" fill="none" fill-rule="evenodd">
        <g id="Partner-Copy" transform="translate(-747.000000, -463.000000)">
            <g id="Group-10" transform="translate(759.000000, 474.000000)">
                <g id="Group-6-Copy-3">
                    <g id="Oval">
                        <use fill="black" fill-opacity="1" filter="url(#filter-2)" xlink:href="#path-1"></use>
                        <use fill="#59BEFC" fill-rule="evenodd" xlink:href="#path-1"></use>
                    </g>
                </g>
                <g id="bar-chart" transform="translate(13.000000, 13.000000)" fill="#FFFFFF" fill-rule="nonzero" stroke="#FFFFFF" stroke-width="0.8">
                    <path d="M29.2763435,0.695069252 C28.840554,0.252049861 28.2582548,0.00523545706 27.6368144,8.31024931e-05 L27.6172853,0 C26.3451524,0 25.3015512,1.03512465 25.2910803,2.30742382 C25.2860111,2.92886427 25.5231025,3.51515235 25.9589751,3.95817175 C26.3948476,4.40119114 26.9770637,4.64800554 27.5985042,4.65315789 L27.6180332,4.653241 C28.8901662,4.653241 29.9337673,3.61811634 29.9442382,2.34581717 C29.9493075,1.72437673 29.712133,1.13808864 29.2763435,0.695069252 Z M27.6179501,3.79371191 L27.6055679,3.79362881 C27.2137396,3.79038781 26.8465928,3.63473684 26.571856,3.35542936 C26.297036,3.07603878 26.1474515,2.70639889 26.1506925,2.31457064 C26.1572576,1.51229917 26.8151801,0.859612188 27.6172853,0.859612188 L27.6296676,0.859695291 C28.0214958,0.862936288 28.3886427,1.01858726 28.6633795,1.29789474 C28.9381994,1.57728532 29.0877839,1.94692521 29.0845429,2.33875346 C29.0779778,3.14102493 28.4200554,3.79371191 27.6179501,3.79371191 Z" id="Shape"></path>
                    <path d="M2.34581717,12.6456233 L2.32628809,12.6455402 C1.05407202,12.6455402 0.0105540166,13.6806648 8.31024931e-05,14.9530471 C-0.0104709141,16.2358172 1.02457064,17.288144 2.30742382,17.2987812 L2.32686981,17.2987812 C3.59908587,17.2987812 4.64268698,16.2636565 4.65315789,14.9913573 C4.66371191,13.7085042 3.62867036,12.6561773 2.34581717,12.6456233 Z M2.32686981,16.439169 L2.31448753,16.4390859 C1.50556787,16.4324377 0.852880886,15.7689474 0.859529086,14.9600277 C0.866177285,14.1577562 1.52409972,13.5050693 2.32620499,13.5050693 L2.33858726,13.5050693 C3.14750693,13.5117175 3.80019391,14.1752909 3.79354571,14.9842105 C3.78698061,15.786482 3.12905817,16.439169 2.32686981,16.439169 Z" id="Shape"></path>
                    <path d="M11.1012465,3.89019391 L11.0817175,3.8901108 C9.80950139,3.8901108 8.76590028,4.92523546 8.75551247,6.19753463 C8.74495845,7.48038781 9.78,8.53271468 11.0628532,8.5432687 L11.0823823,8.5433518 C12.3545152,8.5433518 13.3981163,7.50822715 13.4085873,6.23592798 C13.4191413,4.95299169 12.3840997,3.90066482 11.1012465,3.89019391 Z M11.0822992,7.68382271 L11.0699169,7.68373961 C10.2609972,7.67709141 9.60831025,7.01351801 9.61495845,6.20468144 C9.62160665,5.40240997 10.2795291,4.74972299 11.0816343,4.74972299 L11.0940166,4.74980609 C11.9029363,4.75645429 12.5556233,5.4200277 12.5489751,6.22886427 C12.54241,7.03113573 11.8844875,7.68382271 11.0822992,7.68382271 Z" id="Shape"></path>
                    <path d="M17.4240166,10.212964 L17.4044875,10.2128809 C16.1322715,10.2128809 15.0887535,11.2480055 15.0782825,12.5203047 C15.0677285,13.8031579 16.1028532,14.8554848 17.3857064,14.8660388 L17.4051524,14.8661219 C18.6772853,14.8661219 19.7208864,13.8309972 19.7313573,12.5586981 C19.7419114,11.2757618 18.7067867,10.223518 17.4240166,10.212964 Z M17.4050693,14.0065928 L17.392687,14.0065097 C16.5837673,13.9998615 15.9310803,13.3362881 15.9377285,12.5274515 C15.9442936,11.7251801 16.6022161,11.0724931 17.4043213,11.0724931 L17.4167036,11.0725762 C18.2256233,11.0792244 18.8782271,11.7427978 18.8715789,12.5516343 C18.865097,13.3539058 18.2071745,14.0065928 17.4050693,14.0065928 Z" id="Shape"></path>
                    <polygon id="Rectangle" transform="translate(22.504194, 7.427327) rotate(-45.072926) translate(-22.504194, -7.427327) " points="17.1794904 6.99756626 27.8288982 6.99756626 27.8288982 7.8570878 17.1794904 7.8570878"></polygon>
                    <polygon id="Rectangle" transform="translate(14.244621, 9.380087) rotate(-45.000000) translate(-14.244621, -9.380087) " points="13.8148609 6.80418422 14.6743818 6.80418422 14.6743818 11.9559908 13.8148609 11.9559908"></polygon>
                    <polygon id="Rectangle" transform="translate(6.704357, 10.594433) rotate(-45.000000) translate(-6.704357, -10.594433) " points="2.41011856 10.1646726 10.9985957 10.1646726 10.9985957 11.0241934 2.41011856 11.0241934"></polygon>
                    <path d="M24.6587535,8.85191136 L24.6587535,29.9443213 L29.9442382,29.9443213 L29.9442382,8.85191136 L24.6587535,8.85191136 Z M25.5183657,29.0847091 L25.5182825,9.71144044 L29.0847091,9.71144044 L29.0847091,29.0847091 L25.5183657,29.0847091 Z" id="Shape"></path>
                    <path d="M16.439169,17.7037396 L16.439169,29.9443213 L21.7246537,29.9443213 L21.7246537,17.7037396 L16.439169,17.7037396 Z M20.8652078,29.0847091 L17.2987812,29.0847091 L17.2987812,18.5633518 L20.8652078,18.5633518 L20.8652078,29.0847091 Z" id="Shape"></path>
                    <path d="M8.21950139,17.0714958 L8.21950139,29.9443213 L13.5049861,29.9443213 L13.5049861,17.0714958 L8.21950139,17.0714958 Z M12.6455402,29.0847091 L9.07911357,29.0847091 L9.07911357,17.931108 L12.6455402,17.931108 L12.6455402,29.0847091 Z" id="Shape"></path>
                    <path d="M0,20.2328809 L0,29.9443213 L5.28548476,29.9443213 L5.28556787,20.2328809 L0,20.2328809 Z M4.42595568,29.0847091 L0.859529086,29.0847091 L0.859529086,21.0923269 L4.42595568,21.0923269 C4.42595568,21.0923269 4.42595568,29.0847091 4.42595568,29.0847091 Z" id="Shape"></path>
                </g>
            </g>
        </g>
    </g>
</svg>