<?xml version="1.0" encoding="iso-8859-1"?>
<!-- Generator: Adobe Illustrator 19.0.0, SVG Export Plug-In . SVG Version: 6.00 Build 0)  -->
<svg version="1.1" id="Capa_1" xmlns="http://www.w3.org/2000/svg" xmlns:xlink="http://www.w3.org/1999/xlink" x="0px" y="0px"
	 viewBox="0 0 512 512" style="enable-background:new 0 0 512 512;" xml:space="preserve">
<path style="fill:#C3C8D1;" d="M511.693,431.874L447.13,92.113v273.51l-87.53,87.53h133.266
	C504.783,453.152,513.8,442.962,511.693,431.874z"/>
<path style="fill:#B0B3B7;" d="M447.13,92.112v273.51l-87.53,87.53h30.231l72.931-72.931c3.872-3.872,6.047-9.124,6.047-14.6
	V206.197L447.13,92.112z"/>
<path style="fill:#E4EAF8;" d="M448.162,365.622V92.113c0-7.632-6.187-13.818-13.818-13.818H13.818C6.187,78.294,0,84.481,0,92.113
	v368.153c0,7.632,6.187,13.818,13.818,13.818h325.883L448.162,365.622z"/>
<g>
	<path style="fill:#D8DCE5;" d="M20.646,460.265V92.112c0-7.632,6.187-13.818,13.818-13.818H13.818C6.187,78.294,0,84.481,0,92.112
		v368.153c0,7.632,6.187,13.818,13.818,13.818h20.646C26.833,474.083,20.646,467.897,20.646,460.265z"/>
	<path style="fill:#D8DCE5;" d="M448.162,365.622h-94.643c-7.632,0-13.818,6.187-13.818,13.818v94.643L448.162,365.622z"/>
</g>
<path style="fill:#C3C8D1;" d="M360.347,379.44c0-7.632,6.186-13.818,13.818-13.818h-20.646c-7.632,0-13.818,6.186-13.818,13.818
	v94.643l20.646-20.646V379.44z"/>
<path style="fill:#FF5050;" d="M434.344,77.262H13.818C6.187,77.262,0,83.449,0,91.08v71.221h448.162V91.08
	C448.162,83.449,441.975,77.262,434.344,77.262z"/>
<path style="fill:#ED3A3A;" d="M20.646,92.112c0-7.632,6.187-13.818,13.818-13.818H13.818C6.187,78.294,0,84.481,0,92.112v70.189
	h20.646V92.112z"/>
<g>
	<path style="fill:#E4EAF8;" d="M89.41,128.556c-4.276,0-7.742-3.466-7.742-7.742V45.657c0-4.276,3.466-7.742,7.742-7.742
		c4.276,0,7.742,3.466,7.742,7.742v75.157C97.153,125.09,93.686,128.556,89.41,128.556z"/>
	<path style="fill:#E4EAF8;" d="M156.746,128.556c-4.276,0-7.742-3.466-7.742-7.742V45.657c0-4.276,3.466-7.742,7.742-7.742
		s7.742,3.466,7.742,7.742v75.157C164.488,125.09,161.022,128.556,156.746,128.556z"/>
	<path style="fill:#E4EAF8;" d="M224.081,128.556c-4.276,0-7.742-3.466-7.742-7.742V45.657c0-4.276,3.466-7.742,7.742-7.742
		s7.742,3.466,7.742,7.742v75.157C231.823,125.09,228.357,128.556,224.081,128.556z"/>
	<path style="fill:#E4EAF8;" d="M291.416,128.556c-4.276,0-7.742-3.466-7.742-7.742V45.657c0-4.276,3.466-7.742,7.742-7.742
		s7.742,3.466,7.742,7.742v75.157C299.159,125.09,295.692,128.556,291.416,128.556z"/>
	<path style="fill:#E4EAF8;" d="M358.751,128.556c-4.276,0-7.742-3.466-7.742-7.742V45.657c0-4.276,3.466-7.742,7.742-7.742
		s7.742,3.466,7.742,7.742v75.157C366.494,125.09,363.027,128.556,358.751,128.556z"/>
</g>
<g>
	<circle style="fill:#FFC850;" cx="182.91" cy="241.949" r="23.837"/>
	<circle style="fill:#FFC850;" cx="265.25" cy="241.949" r="23.837"/>
	<circle style="fill:#FFC850;" cx="347.58" cy="241.949" r="23.837"/>
	<circle style="fill:#FFC850;" cx="182.91" cy="318.979" r="23.837"/>
	<circle style="fill:#FFC850;" cx="347.58" cy="318.979" r="23.837"/>
	<circle style="fill:#FFC850;" cx="265.25" cy="318.979" r="23.837"/>
	<circle style="fill:#FFC850;" cx="265.25" cy="396.019" r="23.837"/>
	<circle style="fill:#FFC850;" cx="182.91" cy="396.019" r="23.837"/>
</g>
<g>
	<path style="fill:#F9B428;" d="M179.724,241.95c0-9.467,5.518-17.645,13.514-21.492c-3.124-1.503-6.625-2.345-10.323-2.345
		c-13.165,0-23.837,10.672-23.837,23.837c0,13.165,10.672,23.837,23.837,23.837c3.698,0,7.2-0.843,10.323-2.346
		C185.242,259.594,179.724,251.416,179.724,241.95z"/>
	<path style="fill:#F9B428;" d="M262.056,241.95c0-9.467,5.519-17.645,13.514-21.492c-3.124-1.503-6.625-2.345-10.323-2.345
		c-13.165,0-23.837,10.672-23.837,23.837c0,13.165,10.672,23.837,23.837,23.837c3.698,0,7.2-0.843,10.323-2.346
		C267.575,259.594,262.056,251.416,262.056,241.95z"/>
	<path style="fill:#F9B428;" d="M344.389,241.95c0-9.467,5.519-17.645,13.514-21.492c-3.124-1.503-6.625-2.345-10.323-2.345
		c-13.165,0-23.837,10.672-23.837,23.837c0,13.165,10.672,23.837,23.837,23.837c3.698,0,7.2-0.843,10.323-2.346
		C349.907,259.594,344.389,251.416,344.389,241.95z"/>
	<path style="fill:#F9B428;" d="M179.724,318.982c0-9.467,5.518-17.644,13.514-21.492c-3.124-1.503-6.625-2.345-10.323-2.345
		c-13.165,0-23.837,10.672-23.837,23.837s10.672,23.837,23.837,23.837c3.698,0,7.2-0.842,10.323-2.346
		C185.242,336.627,179.724,328.449,179.724,318.982z"/>
	<path style="fill:#F9B428;" d="M344.389,318.982c0-9.467,5.519-17.644,13.514-21.492c-3.124-1.503-6.625-2.345-10.323-2.345
		c-13.165,0-23.837,10.672-23.837,23.837s10.672,23.837,23.837,23.837c3.698,0,7.2-0.842,10.323-2.346
		C349.907,336.627,344.389,328.449,344.389,318.982z"/>
	<path style="fill:#F9B428;" d="M262.056,318.982c0-9.467,5.519-17.644,13.514-21.492c-3.124-1.503-6.625-2.345-10.323-2.345
		c-13.165,0-23.837,10.672-23.837,23.837s10.672,23.837,23.837,23.837c3.698,0,7.2-0.842,10.323-2.346
		C267.575,336.627,262.056,328.449,262.056,318.982z"/>
	<path style="fill:#F9B428;" d="M262.056,396.015c0-9.467,5.519-17.644,13.514-21.492c-3.124-1.503-6.625-2.345-10.323-2.345
		c-13.165,0-23.837,10.672-23.837,23.837s10.672,23.838,23.837,23.838c3.698,0,7.2-0.843,10.323-2.346
		C267.575,413.66,262.056,405.482,262.056,396.015z"/>
	<path style="fill:#F9B428;" d="M179.724,396.015c0-9.467,5.518-17.644,13.514-21.492c-3.124-1.503-6.625-2.345-10.323-2.345
		c-13.165,0-23.837,10.672-23.837,23.837s10.672,23.838,23.837,23.838c3.698,0,7.2-0.843,10.323-2.346
		C185.242,413.66,179.724,405.482,179.724,396.015z"/>
</g>
<g>
	<path style="fill:#FF5050;" d="M111.532,241.95l11.381-11.381c3.024-3.024,3.024-7.926,0-10.95c-3.023-3.022-7.926-3.022-10.949,0
		L100.583,231l-11.381-11.381c-3.023-3.022-7.925-3.022-10.949,0c-3.024,3.024-3.024,7.926,0,10.95l11.381,11.381l-11.381,11.381
		c-3.024,3.024-3.024,7.926,0,10.95c1.512,1.511,3.493,2.267,5.475,2.267s3.963-0.756,5.475-2.267l11.381-11.381l11.381,11.381
		c1.512,1.511,3.493,2.267,5.475,2.267s3.963-0.756,5.475-2.267c3.024-3.024,3.024-7.926,0-10.95L111.532,241.95z"/>
	<path style="fill:#FF5050;" d="M122.913,296.652c-3.023-3.022-7.926-3.022-10.949,0l-11.381,11.381l-11.381-11.381
		c-3.023-3.022-7.925-3.022-10.949,0c-3.024,3.024-3.024,7.926,0,10.95l11.381,11.381l-11.381,11.381
		c-3.024,3.024-3.024,7.926,0,10.95c1.512,1.511,3.493,2.267,5.475,2.267s3.963-0.756,5.475-2.267l11.381-11.381l11.381,11.381
		c1.512,1.511,3.493,2.267,5.475,2.267s3.963-0.756,5.475-2.267c3.024-3.024,3.024-7.926,0-10.95l-11.381-11.381l11.381-11.381
		C125.937,304.577,125.937,299.676,122.913,296.652z"/>
	<path style="fill:#FF5050;" d="M122.913,373.685c-3.023-3.022-7.925-3.022-10.949,0l-11.381,11.381l-11.381-11.381
		c-3.023-3.022-7.926-3.022-10.949,0c-3.024,3.024-3.024,7.926,0,10.95l11.381,11.38l-11.381,11.38
		c-3.024,3.024-3.024,7.926,0,10.95c1.512,1.511,3.493,2.267,5.475,2.267s3.963-0.756,5.475-2.267l11.381-11.381l11.381,11.381
		c1.512,1.511,3.493,2.267,5.475,2.267s3.963-0.756,5.475-2.267c3.024-3.024,3.024-7.926,0-10.95l-11.381-11.38l11.381-11.38
		C125.937,381.611,125.937,376.709,122.913,373.685z"/>
</g>
<g>
</g>
<g>
</g>
<g>
</g>
<g>
</g>
<g>
</g>
<g>
</g>
<g>
</g>
<g>
</g>
<g>
</g>
<g>
</g>
<g>
</g>
<g>
</g>
<g>
</g>
<g>
</g>
<g>
</g>
</svg>
