<?xml version="1.0" encoding="UTF-8"?>
<svg width="96px" height="96px" viewBox="0 0 96 96" version="1.1" xmlns="http://www.w3.org/2000/svg" xmlns:xlink="http://www.w3.org/1999/xlink">
    <!-- Generator: Sketch 64 (93537) - https://sketch.com -->
    <title>Group 14</title>
    <desc>Created with Sketch.</desc>
    <g id="Page-1" stroke="none" stroke-width="1" fill="none" fill-rule="evenodd">
        <g id="About-us" transform="translate(-1056.000000, -2887.000000)">
            <g id="Group-28" transform="translate(0.000000, 2524.000000)">
                <g id="Group-27" transform="translate(108.000000, 0.000000)">
                    <g id="Group-14" transform="translate(948.000000, 363.000000)">
                        <g id="Group-13" fill="#C6E9FF">
                            <g id="Group-6-Copy">
                                <circle id="Oval" cx="48" cy="48" r="48"></circle>
                            </g>
                        </g>
                        <g id="users" transform="translate(26.000000, 30.000000)" stroke="#6CBFF2" stroke-linecap="round" stroke-linejoin="round" stroke-width="2">
                            <path d="M32,36 L32,32 C32,27.581722 28.418278,24 24,24 L8,24 C3.581722,24 0,27.581722 0,32 L0,36" id="Path"></path>
                            <circle id="Oval" cx="16" cy="8" r="8"></circle>
                            <path d="M44,36 L44,32 C43.9972806,28.3542355 41.5299976,25.1714404 38,24.26" id="Path"></path>
                            <path d="M30,0.26 C33.5398297,1.16633958 36.0156865,4.35598229 36.0156865,8.01 C36.0156865,11.6640177 33.5398297,14.8536604 30,15.76" id="Path"></path>
                        </g>
                    </g>
                </g>
            </g>
        </g>
    </g>
</svg>