<?xml version="1.0" encoding="UTF-8"?>
<svg width="96px" height="96px" viewBox="0 0 96 96" version="1.1" xmlns="http://www.w3.org/2000/svg" xmlns:xlink="http://www.w3.org/1999/xlink">
    <!-- Generator: Sketch 64 (93537) - https://sketch.com -->
    <title>Group 12</title>
    <desc>Created with Sketch.</desc>
    <g id="Page-1" stroke="none" stroke-width="1" fill="none" fill-rule="evenodd">
        <g id="About-us" transform="translate(-648.000000, -2887.000000)">
            <g id="Group-28" transform="translate(0.000000, 2524.000000)">
                <g id="Group-27" transform="translate(108.000000, 0.000000)">
                    <g id="Group-12" transform="translate(540.000000, 363.000000)">
                        <g id="Group-6-Copy" fill="#DACDE6">
                            <circle id="Oval" cx="48" cy="48" r="48"></circle>
                        </g>
                        <g id="codesandbox" transform="translate(33.000000, 30.000000)" stroke="#A676D0" stroke-linecap="round" stroke-linejoin="round" stroke-width="2">
                            <path d="M31,24 L31,10.2857143 C30.9987391,9.06205991 30.3424006,7.93182687 29.2777778,7.32 L17.2222222,0.462857143 C16.1565074,-0.149598154 14.8434926,-0.149598154 13.7777778,0.462857143 L1.72222222,7.32 C0.657599418,7.93182687 0.00126092283,9.06205991 0,10.2857143 L0,24 C0.00126092283,25.2236544 0.657599418,26.3538874 1.72222222,26.9657143 L13.7777778,33.8228571 C14.8434926,34.4353124 16.1565074,34.4353124 17.2222222,33.8228571 L29.2777778,26.9657143 C30.3424006,26.3538874 30.9987391,25.2236544 31,24 Z" id="Path"></path>
                            <polyline id="Path" points="7.75 3.78857143 15.5 8.24571429 23.25 3.78857143"></polyline>
                            <polyline id="Path" points="7.75 30.4971429 7.75 21.6 0 17.1428571"></polyline>
                            <polyline id="Path" points="31 17.1428571 23.25 21.6 23.25 30.4971429"></polyline>
                            <polyline id="Path" points="0.465 8.50285714 15.5 17.16 30.535 8.50285714"></polyline>
                            <line x1="15.5" y1="34.4228571" x2="15.5" y2="17.1428571" id="Path"></line>
                        </g>
                    </g>
                </g>
            </g>
        </g>
    </g>
</svg>